<svg xmlns="http://www.w3.org/2000/svg" version="1.1" xmlns:xlink="http://www.w3.org/1999/xlink" xmlns:svgjs="http://svgjs.com/svgjs" width="1440" height="560" preserveAspectRatio="none" viewBox="0 0 1440 560"><g mask="url(&quot;#SvgjsMask1018&quot;)" fill="none"><rect width="1440" height="560" x="0" y="0" fill="rgba(160, 207, 201, 1)"></rect><path d="M0,511.483C93.345,494.059,166.604,433.035,253.071,393.787C357.716,346.288,496.28,351.002,561.705,256.522C627.791,161.087,620.912,26.071,583.893,-83.951C549.277,-186.834,446.365,-243.746,368.081,-318.944C297.632,-386.615,232.819,-455.063,147.683,-502.962C42.07,-562.382,-68.359,-662.907,-185.023,-630.129C-301.51,-597.401,-337.06,-450.466,-402.166,-348.478C-457.675,-261.523,-512.233,-177.256,-537.905,-77.339C-566.039,32.16,-596.586,148.481,-557.065,254.403C-516.539,363.018,-427.327,452.567,-322.066,501.144C-222.524,547.082,-107.77,531.6,0,511.483" fill="#8ac4bd"></path><path d="M1440 960.803C1513.74 968.6990000000001 1571.219 901.256 1635.091 863.568 1701.805 824.203 1785.9560000000001 802.9490000000001 1822.907 734.8679999999999 1860.414 665.763 1854.778 578.606 1830.312 503.882 1807.739 434.93899999999996 1743.1309999999999 393.262 1693.682 340.183 1646.274 289.295 1609.093 228.178 1546.067 198.76999999999998 1477.238 166.654 1399.604 154.22000000000003 1324.935 168.125 1245.722 182.87599999999998 1157.308 209.97199999999998 1115.623 278.926 1074.345 347.207 1113.897 433.687 1116.179 513.442 1118.0230000000001 577.893 1099.157 644.81 1127.7440000000001 702.6030000000001 1156.004 759.736 1220.909 783.86 1270.031 824.4780000000001 1327.16 871.717 1366.291 952.9100000000001 1440 960.803" fill="#b6dad6"></path></g><defs><mask id="SvgjsMask1018"><rect width="1440" height="560" fill="#ffffff"></rect></mask></defs></svg>